<mxfile host="65bd71144e">
    <diagram id="RNvEtKlmQ5I4T77kAEC2" name="regions">
        <mxGraphModel dx="808" dy="628" grid="1" gridSize="10" guides="1" tooltips="1" connect="1" arrows="1" fold="1" page="1" pageScale="1" pageWidth="850" pageHeight="1100" math="0" shadow="0">
            <root>
                <mxCell id="0"/>
                <mxCell id="1" parent="0"/>
                <mxCell id="PecQ41mfHaMnkj_cU2OG-5" value="问题" style="swimlane;fontStyle=1;childLayout=stackLayout;horizontal=1;startSize=30;horizontalStack=0;resizeParent=1;resizeParentMax=0;resizeLast=0;collapsible=1;marginBottom=0;labelBackgroundColor=none;fontColor=default;fontSize=18;" vertex="1" parent="1">
                    <mxGeometry x="42" y="1137" width="361" height="180" as="geometry">
                        <mxRectangle x="59" y="1100" width="60" height="30" as="alternateBounds"/>
                    </mxGeometry>
                </mxCell>
                <mxCell id="PecQ41mfHaMnkj_cU2OG-6" value="Update: 移除错误的电梯，应独立封装起来；" style="text;strokeColor=none;fillColor=none;align=left;verticalAlign=middle;spacingLeft=4;spacingRight=4;overflow=hidden;points=[[0,0.5],[1,0.5]];portConstraint=eastwest;rotatable=0;labelBackgroundColor=none;fontColor=default;" vertex="1" parent="PecQ41mfHaMnkj_cU2OG-5">
                    <mxGeometry y="30" width="361" height="30" as="geometry"/>
                </mxCell>
                <mxCell id="PecQ41mfHaMnkj_cU2OG-8" style="text;strokeColor=none;fillColor=none;align=left;verticalAlign=middle;spacingLeft=4;spacingRight=4;overflow=hidden;points=[[0,0.5],[1,0.5]];portConstraint=eastwest;rotatable=0;labelBackgroundColor=none;fontColor=default;" vertex="1" parent="PecQ41mfHaMnkj_cU2OG-5">
                    <mxGeometry y="60" width="361" height="30" as="geometry"/>
                </mxCell>
                <mxCell id="PecQ41mfHaMnkj_cU2OG-9" style="text;strokeColor=none;fillColor=none;align=left;verticalAlign=middle;spacingLeft=4;spacingRight=4;overflow=hidden;points=[[0,0.5],[1,0.5]];portConstraint=eastwest;rotatable=0;labelBackgroundColor=none;fontColor=default;" vertex="1" parent="PecQ41mfHaMnkj_cU2OG-5">
                    <mxGeometry y="90" width="361" height="30" as="geometry"/>
                </mxCell>
                <mxCell id="PecQ41mfHaMnkj_cU2OG-10" style="text;strokeColor=none;fillColor=none;align=left;verticalAlign=middle;spacingLeft=4;spacingRight=4;overflow=hidden;points=[[0,0.5],[1,0.5]];portConstraint=eastwest;rotatable=0;labelBackgroundColor=none;fontColor=default;" vertex="1" parent="PecQ41mfHaMnkj_cU2OG-5">
                    <mxGeometry y="120" width="361" height="30" as="geometry"/>
                </mxCell>
                <mxCell id="PecQ41mfHaMnkj_cU2OG-11" style="text;strokeColor=none;fillColor=none;align=left;verticalAlign=middle;spacingLeft=4;spacingRight=4;overflow=hidden;points=[[0,0.5],[1,0.5]];portConstraint=eastwest;rotatable=0;labelBackgroundColor=none;fontColor=default;" vertex="1" parent="PecQ41mfHaMnkj_cU2OG-5">
                    <mxGeometry y="150" width="361" height="30" as="geometry"/>
                </mxCell>
                <mxCell id="PecQ41mfHaMnkj_cU2OG-12" value="TODO" style="swimlane;fontStyle=1;childLayout=stackLayout;horizontal=1;startSize=30;horizontalStack=0;resizeParent=1;resizeParentMax=0;resizeLast=0;collapsible=1;marginBottom=0;labelBackgroundColor=none;fontColor=default;fontSize=18;container=0;" vertex="1" parent="1">
                    <mxGeometry x="432.5" y="1137" width="361" height="180" as="geometry">
                        <mxRectangle x="59" y="1100" width="60" height="30" as="alternateBounds"/>
                    </mxGeometry>
                </mxCell>
                <mxCell id="PecQ41mfHaMnkj_cU2OG-14" style="text;strokeColor=none;fillColor=none;align=left;verticalAlign=middle;spacingLeft=4;spacingRight=4;overflow=hidden;points=[[0,0.5],[1,0.5]];portConstraint=eastwest;rotatable=0;labelBackgroundColor=none;fontColor=default;" vertex="1" parent="PecQ41mfHaMnkj_cU2OG-12">
                    <mxGeometry y="30" width="361" height="30" as="geometry"/>
                </mxCell>
                <mxCell id="PecQ41mfHaMnkj_cU2OG-15" style="text;strokeColor=none;fillColor=none;align=left;verticalAlign=middle;spacingLeft=4;spacingRight=4;overflow=hidden;points=[[0,0.5],[1,0.5]];portConstraint=eastwest;rotatable=0;labelBackgroundColor=none;fontColor=default;" vertex="1" parent="PecQ41mfHaMnkj_cU2OG-12">
                    <mxGeometry y="60" width="361" height="30" as="geometry"/>
                </mxCell>
                <mxCell id="PecQ41mfHaMnkj_cU2OG-16" style="text;strokeColor=none;fillColor=none;align=left;verticalAlign=middle;spacingLeft=4;spacingRight=4;overflow=hidden;points=[[0,0.5],[1,0.5]];portConstraint=eastwest;rotatable=0;labelBackgroundColor=none;fontColor=default;" vertex="1" parent="PecQ41mfHaMnkj_cU2OG-12">
                    <mxGeometry y="90" width="361" height="30" as="geometry"/>
                </mxCell>
                <mxCell id="PecQ41mfHaMnkj_cU2OG-17" style="text;strokeColor=none;fillColor=none;align=left;verticalAlign=middle;spacingLeft=4;spacingRight=4;overflow=hidden;points=[[0,0.5],[1,0.5]];portConstraint=eastwest;rotatable=0;labelBackgroundColor=none;fontColor=default;" vertex="1" parent="PecQ41mfHaMnkj_cU2OG-12">
                    <mxGeometry y="120" width="361" height="30" as="geometry"/>
                </mxCell>
                <mxCell id="PecQ41mfHaMnkj_cU2OG-18" style="text;strokeColor=none;fillColor=none;align=left;verticalAlign=middle;spacingLeft=4;spacingRight=4;overflow=hidden;points=[[0,0.5],[1,0.5]];portConstraint=eastwest;rotatable=0;labelBackgroundColor=none;fontColor=default;" vertex="1" parent="PecQ41mfHaMnkj_cU2OG-12">
                    <mxGeometry y="150" width="361" height="30" as="geometry"/>
                </mxCell>
                <mxCell id="PecQ41mfHaMnkj_cU2OG-27" value="" style="group" vertex="1" connectable="0" parent="1">
                    <mxGeometry x="120" y="150" width="280" height="280" as="geometry"/>
                </mxCell>
                <mxCell id="PecQ41mfHaMnkj_cU2OG-2" value="&lt;span style=&quot;font-family: &amp;#34;droid sans mono&amp;#34; , &amp;#34;monospace&amp;#34; , &amp;#34;monospace&amp;#34; , &amp;#34;droid sans fallback&amp;#34; , &amp;#34;droid sans mono&amp;#34; , &amp;#34;monospace&amp;#34; , monospace ; font-size: 16px ; color: rgb(34 , 129 , 167) ; font-weight: bold&quot;&gt;#&lt;/span&gt;&lt;span style=&quot;font-family: &amp;#34;droid sans mono&amp;#34; , &amp;#34;monospace&amp;#34; , &amp;#34;monospace&amp;#34; , &amp;#34;droid sans fallback&amp;#34; , &amp;#34;droid sans mono&amp;#34; , &amp;#34;monospace&amp;#34; , monospace ; font-size: 16px ; color: rgb(34 , 129 , 167) ; font-weight: bold&quot;&gt;Update&lt;/span&gt;" style="shape=cube;whiteSpace=wrap;html=1;boundedLbl=1;backgroundOutline=1;darkOpacity=0.05;darkOpacity2=0.1;labelBackgroundColor=none;size=10;" vertex="1" parent="PecQ41mfHaMnkj_cU2OG-27">
                    <mxGeometry width="280" height="70" as="geometry"/>
                </mxCell>
                <mxCell id="PecQ41mfHaMnkj_cU2OG-3" value="&lt;div style=&quot;font-family: &amp;#34;droid sans mono&amp;#34; , &amp;#34;monospace&amp;#34; , &amp;#34;monospace&amp;#34; , &amp;#34;droid sans fallback&amp;#34; , &amp;#34;droid sans mono&amp;#34; , &amp;#34;monospace&amp;#34; , monospace ; font-size: 16px ; line-height: 22px&quot;&gt;&lt;span&gt;RemoveInvalid: r.invalid&lt;/span&gt;&lt;/div&gt;" style="rounded=0;whiteSpace=wrap;html=1;labelBackgroundColor=none;fillColor=#E6E6E6;fontColor=default;fontStyle=0;" vertex="1" parent="PecQ41mfHaMnkj_cU2OG-27">
                    <mxGeometry x="24.539373669808455" y="110" width="241.49893584676192" height="40" as="geometry"/>
                </mxCell>
                <mxCell id="PecQ41mfHaMnkj_cU2OG-4" value="&lt;div style=&quot;font-family: &amp;quot;droid sans mono&amp;quot; , &amp;quot;monospace&amp;quot; , &amp;quot;monospace&amp;quot; , &amp;quot;droid sans fallback&amp;quot; , &amp;quot;droid sans mono&amp;quot; , &amp;quot;monospace&amp;quot; , monospace ; font-size: 16px ; line-height: 22px&quot;&gt;&lt;span&gt;RemoveSmall:&amp;nbsp;&lt;/span&gt;&lt;span style=&quot;font-family: &amp;quot;droid sans mono&amp;quot;, &amp;quot;monospace&amp;quot;, &amp;quot;monospace&amp;quot;, &amp;quot;droid sans fallback&amp;quot;, &amp;quot;droid sans mono&amp;quot;, &amp;quot;monospace&amp;quot;, monospace;&quot;&gt;angle&lt;/span&gt;&lt;span style=&quot;font-family: &amp;quot;droid sans mono&amp;quot;, &amp;quot;monospace&amp;quot;, &amp;quot;monospace&amp;quot;, &amp;quot;droid sans fallback&amp;quot;, &amp;quot;droid sans mono&amp;quot;, &amp;quot;monospace&amp;quot;, monospace;&quot;&gt; &lt;/span&gt;&lt;span style=&quot;font-family: &amp;quot;droid sans mono&amp;quot;, &amp;quot;monospace&amp;quot;, &amp;quot;monospace&amp;quot;, &amp;quot;droid sans fallback&amp;quot;, &amp;quot;droid sans mono&amp;quot;, &amp;quot;monospace&amp;quot;, monospace;&quot;&gt;&amp;lt;&amp;nbsp;&lt;/span&gt;&lt;font style=&quot;font-family: &amp;quot;droid sans mono&amp;quot;, &amp;quot;monospace&amp;quot;, &amp;quot;monospace&amp;quot;, &amp;quot;droid sans fallback&amp;quot;, &amp;quot;droid sans mono&amp;quot;, &amp;quot;monospace&amp;quot;, monospace;&quot;&gt;4&lt;/font&gt;&lt;/div&gt;" style="rounded=0;whiteSpace=wrap;html=1;labelBackgroundColor=none;fillColor=#E6E6E6;fontColor=default;fontStyle=0;" vertex="1" parent="PecQ41mfHaMnkj_cU2OG-27">
                    <mxGeometry x="24.539373669808455" y="150" width="241.49893584676192" height="40" as="geometry"/>
                </mxCell>
                <mxCell id="PecQ41mfHaMnkj_cU2OG-19" value="&lt;div style=&quot;font-family: &amp;quot;droid sans mono&amp;quot; , &amp;quot;monospace&amp;quot; , &amp;quot;monospace&amp;quot; , &amp;quot;droid sans fallback&amp;quot; , &amp;quot;droid sans mono&amp;quot; , &amp;quot;monospace&amp;quot; , monospace ; font-size: 16px ; line-height: 22px&quot;&gt;&lt;span style=&quot;font-family: &amp;quot;droid sans mono&amp;quot;, &amp;quot;monospace&amp;quot;, &amp;quot;monospace&amp;quot;, &amp;quot;droid sans fallback&amp;quot;, &amp;quot;droid sans mono&amp;quot;, &amp;quot;monospace&amp;quot;, monospace;&quot;&gt;UpdateRegion&lt;/span&gt;&lt;span&gt;: mustUpdate, dummy...&lt;/span&gt;&lt;/div&gt;" style="rounded=0;whiteSpace=wrap;html=1;labelBackgroundColor=none;fillColor=#E6E6E6;fontColor=default;fontStyle=0;" vertex="1" parent="PecQ41mfHaMnkj_cU2OG-27">
                    <mxGeometry x="24.540000000000006" y="190" width="241.5" height="50" as="geometry"/>
                </mxCell>
                <mxCell id="PecQ41mfHaMnkj_cU2OG-20" value="&lt;div style=&quot;font-family: &amp;#34;droid sans mono&amp;#34; , &amp;#34;monospace&amp;#34; , &amp;#34;monospace&amp;#34; , &amp;#34;droid sans fallback&amp;#34; , &amp;#34;droid sans mono&amp;#34; , &amp;#34;monospace&amp;#34; , monospace ; font-size: 16px ; line-height: 22px&quot;&gt;&lt;span&gt;Add:&amp;nbsp;&lt;/span&gt;&lt;span style=&quot;font-family: &amp;#34;droid sans mono&amp;#34; , &amp;#34;monospace&amp;#34; , &amp;#34;monospace&amp;#34; , &amp;#34;droid sans fallback&amp;#34; , &amp;#34;droid sans mono&amp;#34; , &amp;#34;monospace&amp;#34; , monospace&quot;&gt;failBind&lt;/span&gt;&lt;/div&gt;" style="rounded=0;whiteSpace=wrap;html=1;labelBackgroundColor=none;fillColor=#E6E6E6;fontColor=default;fontStyle=0;" vertex="1" parent="PecQ41mfHaMnkj_cU2OG-27">
                    <mxGeometry x="24.539373669808455" y="240" width="241.49893584676192" height="40" as="geometry"/>
                </mxCell>
                <mxCell id="PecQ41mfHaMnkj_cU2OG-26" value="&lt;div style=&quot;font-family: &amp;quot;droid sans mono&amp;quot; , &amp;quot;monospace&amp;quot; , &amp;quot;monospace&amp;quot; , &amp;quot;droid sans fallback&amp;quot; , &amp;quot;droid sans mono&amp;quot; , &amp;quot;monospace&amp;quot; , monospace ; font-size: 16px ; line-height: 22px&quot;&gt;&lt;div style=&quot;font-family: &amp;quot;droid sans mono&amp;quot;, &amp;quot;monospace&amp;quot;, &amp;quot;monospace&amp;quot;, &amp;quot;droid sans fallback&amp;quot;, &amp;quot;droid sans mono&amp;quot;, &amp;quot;monospace&amp;quot;, monospace; line-height: 22px;&quot;&gt;&lt;span style=&quot;&quot;&gt;Bind&lt;/span&gt;&lt;/div&gt;&lt;/div&gt;" style="rounded=0;whiteSpace=wrap;html=1;labelBackgroundColor=none;fillColor=#E6E6E6;fontColor=default;fontStyle=0;" vertex="1" parent="PecQ41mfHaMnkj_cU2OG-27">
                    <mxGeometry x="24.539373669808455" y="70" width="241.49893584676192" height="40" as="geometry"/>
                </mxCell>
            </root>
        </mxGraphModel>
    </diagram>
    <diagram id="NiaQqEa4a0KHKP-2mya0" name="Page-2">
        <mxGraphModel dx="808" dy="628" grid="1" gridSize="10" guides="1" tooltips="1" connect="1" arrows="1" fold="1" page="1" pageScale="1" pageWidth="850" pageHeight="1100" math="0" shadow="0">
            <root>
                <mxCell id="XkDg3drE4iURYlcRvOER-0"/>
                <mxCell id="XkDg3drE4iURYlcRvOER-1" parent="XkDg3drE4iURYlcRvOER-0"/>
            </root>
        </mxGraphModel>
    </diagram>
</mxfile>